<svg width="250" height="250" viewBox="0 0 250 250" fill="none" xmlns="http://www.w3.org/2000/svg">
<path d="M232.053 62.2775L126.206 0.297568C125.53 -0.0942761 124.697 -0.104072 124.022 0.297568L17.0874 62.2775C16.4115 62.6693 16 63.3844 16 64.1583L16.3233 186.502C16.3233 187.276 16.7445 187.991 17.4106 188.383L124.345 249.716C124.678 249.912 125.05 250 125.422 250C125.795 250 126.177 249.902 126.51 249.706L232.033 188.853C232.709 188.461 233.121 187.746 233.121 186.972V64.1485C233.121 63.3746 232.709 62.6595 232.043 62.2775H232.053ZM22.2401 145.241L53.3329 127.294L123.042 167.487L123.306 204.36L22.2401 145.241ZM20.4572 108.339L49.6986 125.198L20.5454 142.027L20.4572 108.329V108.339ZM158.935 26.8058V62.6987L88.9515 102.579C78.2836 96.4854 67.4099 90.2649 57.506 84.6028L158.945 26.8058H158.935ZM122.738 126.06L123.003 163.295L55.3117 124.267C55.2823 124.208 55.2726 124.159 55.2334 124.101C54.8611 123.464 54.1656 123.131 53.4701 123.209L21.7993 104.949L53.8325 86.6991C79.7334 101.511 111.698 119.771 122.728 126.07L122.738 126.06ZM126.363 126.06L158.474 107.702V224.942L126.941 206.496L126.363 126.06ZM162.089 105.625L194.015 87.3653V204.105L162.089 185.679V105.635V105.625ZM124.541 122.925C115.362 117.684 104.194 111.297 92.5957 104.675L160.551 65.951C160.61 65.951 160.679 65.9706 160.737 65.9706C161.472 65.9706 162.099 65.5298 162.383 64.9028L194.015 46.878V83.1823L124.541 122.915V122.925ZM197.639 47.1719L226.969 64.3444L197.639 81.1153V47.1719ZM162.559 60.6415V26.6295L191.997 43.8706L162.559 60.6415ZM126.911 40.8926V5.76379L157.318 23.5731L126.911 40.9024V40.8926ZM123.287 42.9596L53.8521 82.526C39.3931 74.2581 27.481 67.44 22.1422 64.3738L123.287 5.75399V42.9693V42.9596ZM50.1884 84.6126L20.4279 101.57L20.3397 67.5184C25.61 70.5454 36.8755 77.001 50.1884 84.6126ZM20.5552 148.473L50.7076 166.116L20.6434 183.2L20.5552 148.473ZM54.3223 168.222L123.326 208.582L123.581 244.279L22.5046 186.306L54.3223 168.222ZM126.96 210.708L155.996 227.694L127.195 244.299L126.951 210.708H126.96ZM162.089 189.852L191.84 207.025L162.089 224.177V189.842V189.852ZM197.639 169.682L226.979 186.766L197.639 203.684V169.682ZM197.639 165.489V85.2983L228.771 67.489V183.622L197.639 165.489Z" fill="#171716"/>
</svg>
